Format : MPEG-4
Format profile : Base Media
Codec ID : isom
File size : 736 MiB
Duration : 2h 32mn
Overall bit rate : 676 Kbps
Movie name : BATMAN_THE_DARK_NIGHT
Genre : Sci-Fi & Fantasy
Writing application : Lavf52.13.0

Video
ID : 1
Format : MPEG-4 Visual
Format profile : Simple@L1
Format settings, BVOP : No
Format settings, QPel : No
Format settings, GMC : No warppoints
Format settings, Matrix : Default (H.263)
Codec ID : 20
Duration : 2h 32mn
Bit rate mode : Variable
Bit rate : 544 Kbps
Width : 640 pixels
Height : 360 pixels
Display aspect ratio : 16:9
Frame rate mode : Constant
Frame rate : 23.976 fps
Color space : YUV
Chroma subsampling : 4:2:0
Bit depth : 8 bits
Scan type : Progressive
Bits/(Pixel*Frame) : 0.098
Stream size : 592 MiB (80%)
Writing library : Lavc51.55.0

Audio
ID : 2
Format : AAC
Format/Info : Advanced Audio Codec
Format version : Version 4
Format profile : LC
Format settings, SBR : No
Codec ID : 40
Duration : 2h 32mn
Bit rate mode : Variable
Bit rate : 128 Kbps
Channel(s) : 2 channels
Channel positions : Front: L R
Sampling rate : 48.0 KHz
Stream size : 139 MiB (19%)